<!--
  Wave Pattern: Flowing data visualization
  Represents continuous data flow and processing
  Colors: Deep Blue to Teal gradient
  Commercial use: Custom created, free to use
-->
<svg xmlns="http://www.w3.org/2000/svg" viewBox="0 0 1440 320" preserveAspectRatio="none">
  <defs>
    <linearGradient id="waveGrad1" x1="0%" y1="0%" x2="100%" y2="0%">
      <stop offset="0%" stop-color="#1E3A5F" stop-opacity="0.1"/>
      <stop offset="50%" stop-color="#0D9488" stop-opacity="0.15"/>
      <stop offset="100%" stop-color="#1E3A5F" stop-opacity="0.1"/>
    </linearGradient>
    <linearGradient id="waveGrad2" x1="0%" y1="0%" x2="100%" y2="0%">
      <stop offset="0%" stop-color="#0D9488" stop-opacity="0.08"/>
      <stop offset="50%" stop-color="#1E3A5F" stop-opacity="0.12"/>
      <stop offset="100%" stop-color="#0D9488" stop-opacity="0.08"/>
    </linearGradient>
  </defs>
  
  <path fill="url(#waveGrad1)" d="M0,160L48,176C96,192,192,224,288,213.3C384,203,480,149,576,138.7C672,128,768,160,864,181.3C960,203,1056,213,1152,197.3C1248,181,1344,139,1392,117.3L1440,96L1440,320L1392,320C1344,320,1248,320,1152,320C1056,320,960,320,864,320C768,320,672,320,576,320C480,320,384,320,288,320C192,320,96,320,48,320L0,320Z"/>
  
  <path fill="url(#waveGrad2)" d="M0,224L48,213.3C96,203,192,181,288,181.3C384,181,480,203,576,218.7C672,235,768,245,864,234.7C960,224,1056,192,1152,181.3C1248,171,1344,181,1392,186.7L1440,192L1440,320L1392,320C1344,320,1248,320,1152,320C1056,320,960,320,864,320C768,320,672,320,576,320C480,320,384,320,288,320C192,320,96,320,48,320L0,320Z"/>
</svg>
